<svg xmlns="http://www.w3.org/2000/svg" version="1.1" xmlns:xlink="http://www.w3.org/1999/xlink" xmlns:svgjs="http://svgjs.com/svgjs" width="1000" height="1000"><rect width="1000" height="1000" rx="200" ry="200" fill="#0a0a0a"></rect><g transform="matrix(8,0,0,8,96.04498624801636,185.05078983306885)"><svg xmlns="http://www.w3.org/2000/svg" version="1.1" xmlns:xlink="http://www.w3.org/1999/xlink" xmlns:svgjs="http://svgjs.com/svgjs" width="100" height="80"><svg version="1.1" width="100" height="80" id="svg3594" sodipodi:docname="engine_light_orange.svg" inkscape:version="1.1.2 (b8e25be833, 2022-02-05)" xmlns:inkscape="http://www.inkscape.org/namespaces/inkscape" xmlns:sodipodi="http://sodipodi.sourceforge.net/DTD/sodipodi-0.dtd" xmlns="http://www.w3.org/2000/svg" xmlns:svg="http://www.w3.org/2000/svg">
  <sodipodi:namedview id="namedview5" pagecolor="#505050" bordercolor="#eeeeee" borderopacity="1" inkscape:pageshadow="0" inkscape:pageopacity="0" inkscape:pagecheckerboard="0" showgrid="false" inkscape:zoom="5.8875" inkscape:cx="50.021231" inkscape:cy="40" inkscape:window-width="1280" inkscape:window-height="658" inkscape:window-x="-6" inkscape:window-y="-6" inkscape:window-maximized="1" inkscape:current-layer="svg3594"></sodipodi:namedview>
  <defs id="defs3597"></defs>
  <path d="M 69.288723,62.898705 L 40.87037,62.942708 C 37.741359,60.134001 35.306707,56.240725 31.952093,54.672836 L 20.205453,54.681192 L 19.199065,53.694254 L 18.919386,30.098325 L 20.225257,29.111411 L 25.002381,28.219301 C 27.779654,27.369037 28.133225,26.598863 29.174635,24.124754 L 61.531283,24.253798 L 62.219635,24.839234 L 62.276739,27.499787 L 67.651776,32.87362 L 69.883205,32.971781 L 70.700101,34.052035 L 70.438621,36.749273 L 71.350903,37.719861 L 82.142166,37.595401 L 83.226799,36.461731 C 82.881774,31.116925 87.994674,30.906798 88.191994,37.157126 L 88.946501,39.737642 L 88.844373,52.925715 L 87.87435,54.073509 L 87.648496,58.075016 C 87.706035,60.279252 83.721399,61.254817 83.510209,57.951356 L 83.683638,55.777036 L 82.672667,54.666614 L 72.357381,54.683022 L 70.939859,56.083012 L 70.760381,61.594862 L 69.288723,62.898705 z M 38.778459,68.037542 C 35.882103,67.382004 32.023783,62.294689 28.304134,59.185089 L 17.723881,59.258208 L 13.983852,55.293296 L 13.973034,42.922478 L 11.886188,43.078728 L 11.958158,53.442574 C 11.766235,55.625617 9.7987302,55.492977 8.0954132,52.180552 L 8.1673842,40.449255 L 6.3681062,38.649975 L 6.3681062,26.270939 C 7.5930492,23.561845 9.8020604,21.728862 12.223401,22.926811 L 12.061995,34.87402 L 13.769428,35.305847 L 13.913371,29.404213 L 17.352406,24.262975 L 19.058369,24.22229 L 21.649329,24.366233 C 23.055922,22.061854 24.167451,19.948286 26.473514,19.083058 L 37.482981,19.127513 L 37.593466,15.786493 L 30.972121,15.786493 L 29.244813,14.419043 L 29.156328,11.806018 L 30.434868,10.624802 L 57.961296,10.519374 L 58.681013,11.526971 L 58.659819,14.872883 L 57.961296,15.42664 L 51.124043,15.49861 L 51.013554,18.911599 L 62.657711,18.839628 C 64.912186,19.890009 66.851968,20.557015 67.379404,21.991185 L 68.039451,25.231761 L 69.428072,26.44257 L 73.835975,26.5607 L 74.982457,27.640266 L 74.975206,32.172572 L 78.642903,32.016322 L 78.799163,27.268102 L 80.310549,26.40445 L 88.800596,26.671185 C 90.36349,26.949765 92.08078,28.230935 92.183243,29.47806 L 94.761898,39.983968 L 94.706638,54.716974 L 90.892164,66.160386 L 80.686185,66.148009 C 78.811799,66.13005 79.094915,62.126517 79.003985,60.004326 L 75.667743,60.114811 C 75.695495,65.725769 73.967959,67.745417 70.589706,67.893599 L 38.778459,68.037542 z" id="path3607" style="fill:#d05a11;fill-opacity:1;fill-rule:evenodd;stroke:none;stroke-width:1px;stroke-linecap:butt;stroke-linejoin:miter;stroke-opacity:1"></path>
</svg></svg></g></svg>