<?xml version="1.0" encoding="UTF-8" standalone="no"?>
<!-- Uploaded to: SVG Repo, www.svgrepo.com, Generator: SVG Repo Mixer Tools -->

<svg
   fill="#000000"
   width="650"
   height="650"
   viewBox="0 0 25.999999 26.000001"
   version="1.1"
   id="svg6"
   sodipodi:docname="phone_icon.svg"
   inkscape:version="1.1.2 (b8e25be833, 2022-02-05)"
   xmlns:inkscape="http://www.inkscape.org/namespaces/inkscape"
   xmlns:sodipodi="http://sodipodi.sourceforge.net/DTD/sodipodi-0.dtd"
   xmlns="http://www.w3.org/2000/svg"
   xmlns:svg="http://www.w3.org/2000/svg"
   xmlns:rdf="http://www.w3.org/1999/02/22-rdf-syntax-ns#"
   xmlns:cc="http://creativecommons.org/ns#"
   xmlns:dc="http://purl.org/dc/elements/1.1/">
  <defs
     id="defs10" />
  <sodipodi:namedview
     id="namedview8"
     pagecolor="#505050"
     bordercolor="#eeeeee"
     borderopacity="1"
     inkscape:pageshadow="0"
     inkscape:pageopacity="0"
     inkscape:pagecheckerboard="0"
     showgrid="false"
     fit-margin-top="0"
     fit-margin-left="0"
     fit-margin-right="0"
     fit-margin-bottom="0"
     inkscape:zoom="1.09125"
     inkscape:cx="359.67927"
     inkscape:cy="281.32875"
     inkscape:window-width="1920"
     inkscape:window-height="1137"
     inkscape:window-x="-8"
     inkscape:window-y="-8"
     inkscape:window-maximized="1"
     inkscape:current-layer="svg6"
     width="580.20001px" />
  <title
     id="title2">phone</title>
  <path
     d="m 1.8337606,7.4267606 c 0,0.938 0.344,1.969 0.781,3.0630004 0.437,1.093999 1,2.124999 1.438,2.905999 1.188,2.063 2.719,4.094 4.469,5.781 1.7500004,1.687 3.8130004,3.094 6.1250004,3.938 1.344,0.531 2.688,1.125 4.188,1.125 0.75,0 1.813,-0.281 2.781,-0.688 0.938,-0.406 1.781,-1.031 2.094,-1.781 0.125,-0.281 0.281,-0.656 0.375,-1.094 0.094,-0.406 0.156,-0.813 0.156,-1.094 0,-0.156 0,-0.313 -0.031,-0.344 -0.094,-0.188 -0.313,-0.344 -0.563,-0.5 -0.563,-0.281 -0.656,-0.375 -1.5,-0.875 -0.875,-0.5 -1.781,-1.063 -2.563,-1.469 -0.375,-0.219 -0.625,-0.313 -0.719,-0.313 -0.5,0 -1.125,0.688 -1.656,1.438 -0.563,0.75 -1.188,1.438 -1.625,1.438 -0.219,0 -0.438,-0.094 -0.688,-0.25 -0.25,-0.156 -0.5,-0.281 -0.656,-0.375 -2.75,-1.563 -4.5940004,-3.406 -6.1560004,-6.125 -0.188,-0.313 -0.625,-0.969 -0.625,-1.312999 0,-0.406 0.563,-0.875 1.125,-1.3750004 0.531,-0.469 1.094,-1.031 1.094,-1.719 0,-0.094 -0.063,-0.375 -0.188,-0.781 -0.281,-0.813 -0.656,-1.75 -0.969,-2.656 -0.156,-0.438 -0.281,-0.75 -0.313,-0.906 -0.063,-0.094 -0.094,-0.219 -0.125,-0.375 -0.031,-0.156 -0.094,-0.281 -0.125,-0.406 -0.094,-0.281 -0.25,-0.5 -0.406,-0.625 -0.156,-0.063 -0.531,-0.156 -0.906,-0.188 -0.375,0 -0.813,-0.031 -1,-0.031 -0.094,0 -0.219,0 -0.344,0.031 h -0.406 c -1,0.438 -1.719,1.313 -2.25,2.344 -0.5,1.031 -0.813,2.188 -0.813,3.219 z"
     id="path4" />
  <metadata
     id="metadata827">
    <rdf:RDF>
      <cc:Work
         rdf:about="">
        <dc:title>phone</dc:title>
      </cc:Work>
    </rdf:RDF>
  </metadata>
</svg>
